<mxfile host="app.diagrams.net" modified="2024-03-30T11:35:43.367Z" agent="Mozilla/5.0 (Macintosh; Intel Mac OS X 10_15_7) AppleWebKit/537.36 (KHTML, like Gecko) Chrome/120.0.0.0 Whale/3.24.223.18 Safari/537.36" etag="s9pM4uFaZkOinmXLSIdv" version="24.1.0" type="github">
  <diagram name="페이지-1" id="t3tGC_7ZUbPhZwxjExYe">
    <mxGraphModel dx="374" dy="712" grid="1" gridSize="10" guides="1" tooltips="1" connect="1" arrows="1" fold="1" page="1" pageScale="1" pageWidth="1169" pageHeight="827" math="0" shadow="0">
      <root>
        <mxCell id="0" />
        <mxCell id="1" parent="0" />
        <mxCell id="pjavsnHLvcbqXYeomyV3-1" value="" style="childLayout=tableLayout;recursiveResize=0;shadow=0;fillColor=#f5f5f5;strokeColor=none;opacity=10;fontColor=#333333;" parent="1" vertex="1">
          <mxGeometry x="190" y="360" width="840" height="328" as="geometry" />
        </mxCell>
        <mxCell id="pjavsnHLvcbqXYeomyV3-2" value="" style="shape=tableRow;horizontal=0;startSize=0;swimlaneHead=0;swimlaneBody=0;top=0;left=0;bottom=0;right=0;dropTarget=0;collapsible=0;recursiveResize=0;expand=0;fontStyle=0;fillColor=none;strokeColor=inherit;opacity=0;" parent="pjavsnHLvcbqXYeomyV3-1" vertex="1">
          <mxGeometry width="840" height="47" as="geometry" />
        </mxCell>
        <mxCell id="pjavsnHLvcbqXYeomyV3-3" value="time" style="connectable=0;recursiveResize=0;strokeColor=inherit;fillColor=none;align=center;whiteSpace=wrap;html=1;opacity=30;" parent="pjavsnHLvcbqXYeomyV3-2" vertex="1">
          <mxGeometry width="60" height="47" as="geometry">
            <mxRectangle width="60" height="47" as="alternateBounds" />
          </mxGeometry>
        </mxCell>
        <mxCell id="pjavsnHLvcbqXYeomyV3-4" value="" style="connectable=0;recursiveResize=0;strokeColor=inherit;fillColor=none;align=center;whiteSpace=wrap;html=1;opacity=30;" parent="pjavsnHLvcbqXYeomyV3-2" vertex="1">
          <mxGeometry x="60" width="60" height="47" as="geometry">
            <mxRectangle width="60" height="47" as="alternateBounds" />
          </mxGeometry>
        </mxCell>
        <mxCell id="pjavsnHLvcbqXYeomyV3-5" value="" style="connectable=0;recursiveResize=0;strokeColor=inherit;fillColor=none;align=center;whiteSpace=wrap;html=1;opacity=30;" parent="pjavsnHLvcbqXYeomyV3-2" vertex="1">
          <mxGeometry x="120" width="60" height="47" as="geometry">
            <mxRectangle width="60" height="47" as="alternateBounds" />
          </mxGeometry>
        </mxCell>
        <mxCell id="pjavsnHLvcbqXYeomyV3-6" style="connectable=0;recursiveResize=0;strokeColor=inherit;fillColor=none;align=center;whiteSpace=wrap;html=1;opacity=30;" parent="pjavsnHLvcbqXYeomyV3-2" vertex="1">
          <mxGeometry x="180" width="60" height="47" as="geometry">
            <mxRectangle width="60" height="47" as="alternateBounds" />
          </mxGeometry>
        </mxCell>
        <mxCell id="pjavsnHLvcbqXYeomyV3-7" style="connectable=0;recursiveResize=0;strokeColor=inherit;fillColor=none;align=center;whiteSpace=wrap;html=1;opacity=30;" parent="pjavsnHLvcbqXYeomyV3-2" vertex="1">
          <mxGeometry x="240" width="60" height="47" as="geometry">
            <mxRectangle width="60" height="47" as="alternateBounds" />
          </mxGeometry>
        </mxCell>
        <mxCell id="pjavsnHLvcbqXYeomyV3-8" style="connectable=0;recursiveResize=0;strokeColor=inherit;fillColor=none;align=center;whiteSpace=wrap;html=1;opacity=30;" parent="pjavsnHLvcbqXYeomyV3-2" vertex="1">
          <mxGeometry x="300" width="60" height="47" as="geometry">
            <mxRectangle width="60" height="47" as="alternateBounds" />
          </mxGeometry>
        </mxCell>
        <mxCell id="fvTjEnIU4ORiggJGkJ3c-1" style="connectable=0;recursiveResize=0;strokeColor=inherit;fillColor=none;align=center;whiteSpace=wrap;html=1;opacity=30;" vertex="1" parent="pjavsnHLvcbqXYeomyV3-2">
          <mxGeometry x="360" width="60" height="47" as="geometry">
            <mxRectangle width="60" height="47" as="alternateBounds" />
          </mxGeometry>
        </mxCell>
        <mxCell id="fvTjEnIU4ORiggJGkJ3c-6" style="connectable=0;recursiveResize=0;strokeColor=inherit;fillColor=none;align=center;whiteSpace=wrap;html=1;opacity=30;" vertex="1" parent="pjavsnHLvcbqXYeomyV3-2">
          <mxGeometry x="420" width="60" height="47" as="geometry">
            <mxRectangle width="60" height="47" as="alternateBounds" />
          </mxGeometry>
        </mxCell>
        <mxCell id="fvTjEnIU4ORiggJGkJ3c-11" style="connectable=0;recursiveResize=0;strokeColor=inherit;fillColor=none;align=center;whiteSpace=wrap;html=1;opacity=30;" vertex="1" parent="pjavsnHLvcbqXYeomyV3-2">
          <mxGeometry x="480" width="60" height="47" as="geometry">
            <mxRectangle width="60" height="47" as="alternateBounds" />
          </mxGeometry>
        </mxCell>
        <mxCell id="fvTjEnIU4ORiggJGkJ3c-16" style="connectable=0;recursiveResize=0;strokeColor=inherit;fillColor=none;align=center;whiteSpace=wrap;html=1;opacity=30;" vertex="1" parent="pjavsnHLvcbqXYeomyV3-2">
          <mxGeometry x="540" width="60" height="47" as="geometry">
            <mxRectangle width="60" height="47" as="alternateBounds" />
          </mxGeometry>
        </mxCell>
        <mxCell id="fvTjEnIU4ORiggJGkJ3c-21" style="connectable=0;recursiveResize=0;strokeColor=inherit;fillColor=none;align=center;whiteSpace=wrap;html=1;opacity=30;" vertex="1" parent="pjavsnHLvcbqXYeomyV3-2">
          <mxGeometry x="600" width="60" height="47" as="geometry">
            <mxRectangle width="60" height="47" as="alternateBounds" />
          </mxGeometry>
        </mxCell>
        <mxCell id="fvTjEnIU4ORiggJGkJ3c-36" style="connectable=0;recursiveResize=0;strokeColor=inherit;fillColor=none;align=center;whiteSpace=wrap;html=1;opacity=30;" vertex="1" parent="pjavsnHLvcbqXYeomyV3-2">
          <mxGeometry x="660" width="60" height="47" as="geometry">
            <mxRectangle width="60" height="47" as="alternateBounds" />
          </mxGeometry>
        </mxCell>
        <mxCell id="fvTjEnIU4ORiggJGkJ3c-41" style="connectable=0;recursiveResize=0;strokeColor=inherit;fillColor=none;align=center;whiteSpace=wrap;html=1;opacity=30;" vertex="1" parent="pjavsnHLvcbqXYeomyV3-2">
          <mxGeometry x="720" width="60" height="47" as="geometry">
            <mxRectangle width="60" height="47" as="alternateBounds" />
          </mxGeometry>
        </mxCell>
        <mxCell id="fvTjEnIU4ORiggJGkJ3c-85" style="connectable=0;recursiveResize=0;strokeColor=inherit;fillColor=none;align=center;whiteSpace=wrap;html=1;opacity=30;" vertex="1" parent="pjavsnHLvcbqXYeomyV3-2">
          <mxGeometry x="780" width="60" height="47" as="geometry">
            <mxRectangle width="60" height="47" as="alternateBounds" />
          </mxGeometry>
        </mxCell>
        <mxCell id="pjavsnHLvcbqXYeomyV3-12" style="shape=tableRow;horizontal=0;startSize=0;swimlaneHead=0;swimlaneBody=0;top=0;left=0;bottom=0;right=0;dropTarget=0;collapsible=0;recursiveResize=0;expand=0;fontStyle=0;fillColor=none;strokeColor=default;opacity=30;" parent="pjavsnHLvcbqXYeomyV3-1" vertex="1">
          <mxGeometry y="47" width="840" height="46" as="geometry" />
        </mxCell>
        <mxCell id="pjavsnHLvcbqXYeomyV3-13" value="event" style="connectable=0;recursiveResize=0;strokeColor=inherit;fillColor=none;align=center;whiteSpace=wrap;html=1;opacity=30;" parent="pjavsnHLvcbqXYeomyV3-12" vertex="1">
          <mxGeometry width="60" height="46" as="geometry">
            <mxRectangle width="60" height="46" as="alternateBounds" />
          </mxGeometry>
        </mxCell>
        <mxCell id="pjavsnHLvcbqXYeomyV3-14" value="" style="connectable=0;recursiveResize=0;strokeColor=default;fillColor=none;align=center;whiteSpace=wrap;html=1;opacity=30;" parent="pjavsnHLvcbqXYeomyV3-12" vertex="1">
          <mxGeometry x="60" width="60" height="46" as="geometry">
            <mxRectangle width="60" height="46" as="alternateBounds" />
          </mxGeometry>
        </mxCell>
        <mxCell id="pjavsnHLvcbqXYeomyV3-15" value="" style="connectable=0;recursiveResize=0;strokeColor=default;fillColor=none;align=center;whiteSpace=wrap;html=1;opacity=30;" parent="pjavsnHLvcbqXYeomyV3-12" vertex="1">
          <mxGeometry x="120" width="60" height="46" as="geometry">
            <mxRectangle width="60" height="46" as="alternateBounds" />
          </mxGeometry>
        </mxCell>
        <mxCell id="pjavsnHLvcbqXYeomyV3-16" style="connectable=0;recursiveResize=0;strokeColor=default;fillColor=none;align=center;whiteSpace=wrap;html=1;opacity=30;" parent="pjavsnHLvcbqXYeomyV3-12" vertex="1">
          <mxGeometry x="180" width="60" height="46" as="geometry">
            <mxRectangle width="60" height="46" as="alternateBounds" />
          </mxGeometry>
        </mxCell>
        <mxCell id="pjavsnHLvcbqXYeomyV3-17" style="connectable=0;recursiveResize=0;strokeColor=default;fillColor=none;align=center;whiteSpace=wrap;html=1;opacity=30;" parent="pjavsnHLvcbqXYeomyV3-12" vertex="1">
          <mxGeometry x="240" width="60" height="46" as="geometry">
            <mxRectangle width="60" height="46" as="alternateBounds" />
          </mxGeometry>
        </mxCell>
        <mxCell id="pjavsnHLvcbqXYeomyV3-18" style="connectable=0;recursiveResize=0;strokeColor=default;fillColor=none;align=center;whiteSpace=wrap;html=1;opacity=30;" parent="pjavsnHLvcbqXYeomyV3-12" vertex="1">
          <mxGeometry x="300" width="60" height="46" as="geometry">
            <mxRectangle width="60" height="46" as="alternateBounds" />
          </mxGeometry>
        </mxCell>
        <mxCell id="fvTjEnIU4ORiggJGkJ3c-2" style="connectable=0;recursiveResize=0;strokeColor=default;fillColor=none;align=center;whiteSpace=wrap;html=1;opacity=30;" vertex="1" parent="pjavsnHLvcbqXYeomyV3-12">
          <mxGeometry x="360" width="60" height="46" as="geometry">
            <mxRectangle width="60" height="46" as="alternateBounds" />
          </mxGeometry>
        </mxCell>
        <mxCell id="fvTjEnIU4ORiggJGkJ3c-7" style="connectable=0;recursiveResize=0;strokeColor=default;fillColor=none;align=center;whiteSpace=wrap;html=1;opacity=30;" vertex="1" parent="pjavsnHLvcbqXYeomyV3-12">
          <mxGeometry x="420" width="60" height="46" as="geometry">
            <mxRectangle width="60" height="46" as="alternateBounds" />
          </mxGeometry>
        </mxCell>
        <mxCell id="fvTjEnIU4ORiggJGkJ3c-12" style="connectable=0;recursiveResize=0;strokeColor=default;fillColor=none;align=center;whiteSpace=wrap;html=1;opacity=30;" vertex="1" parent="pjavsnHLvcbqXYeomyV3-12">
          <mxGeometry x="480" width="60" height="46" as="geometry">
            <mxRectangle width="60" height="46" as="alternateBounds" />
          </mxGeometry>
        </mxCell>
        <mxCell id="fvTjEnIU4ORiggJGkJ3c-17" style="connectable=0;recursiveResize=0;strokeColor=default;fillColor=none;align=center;whiteSpace=wrap;html=1;opacity=30;" vertex="1" parent="pjavsnHLvcbqXYeomyV3-12">
          <mxGeometry x="540" width="60" height="46" as="geometry">
            <mxRectangle width="60" height="46" as="alternateBounds" />
          </mxGeometry>
        </mxCell>
        <mxCell id="fvTjEnIU4ORiggJGkJ3c-22" style="connectable=0;recursiveResize=0;strokeColor=default;fillColor=none;align=center;whiteSpace=wrap;html=1;opacity=30;" vertex="1" parent="pjavsnHLvcbqXYeomyV3-12">
          <mxGeometry x="600" width="60" height="46" as="geometry">
            <mxRectangle width="60" height="46" as="alternateBounds" />
          </mxGeometry>
        </mxCell>
        <mxCell id="fvTjEnIU4ORiggJGkJ3c-37" style="connectable=0;recursiveResize=0;strokeColor=default;fillColor=none;align=center;whiteSpace=wrap;html=1;opacity=30;" vertex="1" parent="pjavsnHLvcbqXYeomyV3-12">
          <mxGeometry x="660" width="60" height="46" as="geometry">
            <mxRectangle width="60" height="46" as="alternateBounds" />
          </mxGeometry>
        </mxCell>
        <mxCell id="fvTjEnIU4ORiggJGkJ3c-42" style="connectable=0;recursiveResize=0;strokeColor=default;fillColor=none;align=center;whiteSpace=wrap;html=1;opacity=30;" vertex="1" parent="pjavsnHLvcbqXYeomyV3-12">
          <mxGeometry x="720" width="60" height="46" as="geometry">
            <mxRectangle width="60" height="46" as="alternateBounds" />
          </mxGeometry>
        </mxCell>
        <mxCell id="fvTjEnIU4ORiggJGkJ3c-86" style="connectable=0;recursiveResize=0;strokeColor=default;fillColor=none;align=center;whiteSpace=wrap;html=1;opacity=30;" vertex="1" parent="pjavsnHLvcbqXYeomyV3-12">
          <mxGeometry x="780" width="60" height="46" as="geometry">
            <mxRectangle width="60" height="46" as="alternateBounds" />
          </mxGeometry>
        </mxCell>
        <mxCell id="pjavsnHLvcbqXYeomyV3-22" style="shape=tableRow;horizontal=0;startSize=0;swimlaneHead=0;swimlaneBody=0;top=0;left=0;bottom=0;right=0;dropTarget=0;collapsible=0;recursiveResize=0;expand=0;fontStyle=0;fillColor=none;strokeColor=default;opacity=30;" parent="pjavsnHLvcbqXYeomyV3-1" vertex="1">
          <mxGeometry y="93" width="840" height="47" as="geometry" />
        </mxCell>
        <mxCell id="pjavsnHLvcbqXYeomyV3-23" value="window" style="connectable=0;recursiveResize=0;strokeColor=inherit;fillColor=none;align=center;whiteSpace=wrap;html=1;opacity=30;rowspan=5;colspan=1;" parent="pjavsnHLvcbqXYeomyV3-22" vertex="1">
          <mxGeometry width="60" height="235" as="geometry">
            <mxRectangle width="60" height="47" as="alternateBounds" />
          </mxGeometry>
        </mxCell>
        <mxCell id="pjavsnHLvcbqXYeomyV3-24" value="" style="connectable=0;recursiveResize=0;strokeColor=default;fillColor=none;align=center;whiteSpace=wrap;html=1;opacity=30;rowspan=5;colspan=1;" parent="pjavsnHLvcbqXYeomyV3-22" vertex="1">
          <mxGeometry x="60" width="60" height="235" as="geometry">
            <mxRectangle width="60" height="47" as="alternateBounds" />
          </mxGeometry>
        </mxCell>
        <mxCell id="pjavsnHLvcbqXYeomyV3-25" value="" style="connectable=0;recursiveResize=0;strokeColor=default;fillColor=none;align=center;whiteSpace=wrap;html=1;opacity=30;rowspan=5;colspan=1;" parent="pjavsnHLvcbqXYeomyV3-22" vertex="1">
          <mxGeometry x="120" width="60" height="235" as="geometry">
            <mxRectangle width="60" height="47" as="alternateBounds" />
          </mxGeometry>
        </mxCell>
        <mxCell id="pjavsnHLvcbqXYeomyV3-26" style="connectable=0;recursiveResize=0;strokeColor=default;fillColor=none;align=center;whiteSpace=wrap;html=1;opacity=30;rowspan=5;colspan=1;" parent="pjavsnHLvcbqXYeomyV3-22" vertex="1">
          <mxGeometry x="180" width="60" height="235" as="geometry">
            <mxRectangle width="60" height="47" as="alternateBounds" />
          </mxGeometry>
        </mxCell>
        <mxCell id="pjavsnHLvcbqXYeomyV3-27" style="connectable=0;recursiveResize=0;strokeColor=default;fillColor=none;align=center;whiteSpace=wrap;html=1;opacity=30;rowspan=5;colspan=1;" parent="pjavsnHLvcbqXYeomyV3-22" vertex="1">
          <mxGeometry x="240" width="60" height="235" as="geometry">
            <mxRectangle width="60" height="47" as="alternateBounds" />
          </mxGeometry>
        </mxCell>
        <mxCell id="pjavsnHLvcbqXYeomyV3-28" style="connectable=0;recursiveResize=0;strokeColor=default;fillColor=none;align=center;whiteSpace=wrap;html=1;opacity=30;rowspan=5;colspan=1;" parent="pjavsnHLvcbqXYeomyV3-22" vertex="1">
          <mxGeometry x="300" width="60" height="235" as="geometry">
            <mxRectangle width="60" height="47" as="alternateBounds" />
          </mxGeometry>
        </mxCell>
        <mxCell id="fvTjEnIU4ORiggJGkJ3c-3" style="connectable=0;recursiveResize=0;strokeColor=default;fillColor=none;align=center;whiteSpace=wrap;html=1;opacity=30;rowspan=5;colspan=1;" vertex="1" parent="pjavsnHLvcbqXYeomyV3-22">
          <mxGeometry x="360" width="60" height="235" as="geometry">
            <mxRectangle width="60" height="47" as="alternateBounds" />
          </mxGeometry>
        </mxCell>
        <mxCell id="fvTjEnIU4ORiggJGkJ3c-8" style="connectable=0;recursiveResize=0;strokeColor=default;fillColor=none;align=center;whiteSpace=wrap;html=1;opacity=30;rowspan=5;colspan=1;" vertex="1" parent="pjavsnHLvcbqXYeomyV3-22">
          <mxGeometry x="420" width="60" height="235" as="geometry">
            <mxRectangle width="60" height="47" as="alternateBounds" />
          </mxGeometry>
        </mxCell>
        <mxCell id="fvTjEnIU4ORiggJGkJ3c-13" style="connectable=0;recursiveResize=0;strokeColor=default;fillColor=none;align=center;whiteSpace=wrap;html=1;opacity=30;rowspan=5;colspan=1;" vertex="1" parent="pjavsnHLvcbqXYeomyV3-22">
          <mxGeometry x="480" width="60" height="235" as="geometry">
            <mxRectangle width="60" height="47" as="alternateBounds" />
          </mxGeometry>
        </mxCell>
        <mxCell id="fvTjEnIU4ORiggJGkJ3c-18" style="connectable=0;recursiveResize=0;strokeColor=default;fillColor=none;align=center;whiteSpace=wrap;html=1;opacity=30;rowspan=5;colspan=1;" vertex="1" parent="pjavsnHLvcbqXYeomyV3-22">
          <mxGeometry x="540" width="60" height="235" as="geometry">
            <mxRectangle width="60" height="47" as="alternateBounds" />
          </mxGeometry>
        </mxCell>
        <mxCell id="fvTjEnIU4ORiggJGkJ3c-23" style="connectable=0;recursiveResize=0;strokeColor=default;fillColor=none;align=center;whiteSpace=wrap;html=1;opacity=30;rowspan=5;colspan=1;" vertex="1" parent="pjavsnHLvcbqXYeomyV3-22">
          <mxGeometry x="600" width="60" height="235" as="geometry">
            <mxRectangle width="60" height="47" as="alternateBounds" />
          </mxGeometry>
        </mxCell>
        <mxCell id="fvTjEnIU4ORiggJGkJ3c-38" style="connectable=0;recursiveResize=0;strokeColor=default;fillColor=none;align=center;whiteSpace=wrap;html=1;opacity=30;rowspan=5;colspan=1;" vertex="1" parent="pjavsnHLvcbqXYeomyV3-22">
          <mxGeometry x="660" width="60" height="235" as="geometry">
            <mxRectangle width="60" height="47" as="alternateBounds" />
          </mxGeometry>
        </mxCell>
        <mxCell id="fvTjEnIU4ORiggJGkJ3c-43" style="connectable=0;recursiveResize=0;strokeColor=default;fillColor=none;align=center;whiteSpace=wrap;html=1;opacity=30;rowspan=5;colspan=1;" vertex="1" parent="pjavsnHLvcbqXYeomyV3-22">
          <mxGeometry x="720" width="60" height="235" as="geometry">
            <mxRectangle width="60" height="47" as="alternateBounds" />
          </mxGeometry>
        </mxCell>
        <mxCell id="fvTjEnIU4ORiggJGkJ3c-87" style="connectable=0;recursiveResize=0;strokeColor=default;fillColor=none;align=center;whiteSpace=wrap;html=1;opacity=30;rowspan=5;colspan=1;" vertex="1" parent="pjavsnHLvcbqXYeomyV3-22">
          <mxGeometry x="780" width="60" height="235" as="geometry">
            <mxRectangle width="60" height="47" as="alternateBounds" />
          </mxGeometry>
        </mxCell>
        <mxCell id="pjavsnHLvcbqXYeomyV3-32" style="shape=tableRow;horizontal=0;startSize=0;swimlaneHead=0;swimlaneBody=0;top=0;left=0;bottom=0;right=0;dropTarget=0;collapsible=0;recursiveResize=0;expand=0;fontStyle=0;fillColor=none;strokeColor=default;opacity=30;" parent="pjavsnHLvcbqXYeomyV3-1" vertex="1">
          <mxGeometry y="140" width="840" height="47" as="geometry" />
        </mxCell>
        <mxCell id="pjavsnHLvcbqXYeomyV3-33" style="connectable=0;recursiveResize=0;strokeColor=inherit;fillColor=none;align=center;whiteSpace=wrap;html=1;opacity=30;" parent="pjavsnHLvcbqXYeomyV3-32" vertex="1" visible="0">
          <mxGeometry width="60" height="47" as="geometry">
            <mxRectangle width="60" height="47" as="alternateBounds" />
          </mxGeometry>
        </mxCell>
        <mxCell id="pjavsnHLvcbqXYeomyV3-34" style="connectable=0;recursiveResize=0;strokeColor=default;fillColor=none;align=center;whiteSpace=wrap;html=1;opacity=30;" parent="pjavsnHLvcbqXYeomyV3-32" vertex="1" visible="0">
          <mxGeometry x="60" width="60" height="47" as="geometry">
            <mxRectangle width="60" height="47" as="alternateBounds" />
          </mxGeometry>
        </mxCell>
        <mxCell id="pjavsnHLvcbqXYeomyV3-35" style="connectable=0;recursiveResize=0;strokeColor=default;fillColor=none;align=center;whiteSpace=wrap;html=1;opacity=30;" parent="pjavsnHLvcbqXYeomyV3-32" vertex="1" visible="0">
          <mxGeometry x="120" width="60" height="47" as="geometry">
            <mxRectangle width="60" height="47" as="alternateBounds" />
          </mxGeometry>
        </mxCell>
        <mxCell id="pjavsnHLvcbqXYeomyV3-36" style="connectable=0;recursiveResize=0;strokeColor=default;fillColor=none;align=center;whiteSpace=wrap;html=1;opacity=30;" parent="pjavsnHLvcbqXYeomyV3-32" vertex="1" visible="0">
          <mxGeometry x="180" width="60" height="47" as="geometry">
            <mxRectangle width="60" height="47" as="alternateBounds" />
          </mxGeometry>
        </mxCell>
        <mxCell id="pjavsnHLvcbqXYeomyV3-37" style="connectable=0;recursiveResize=0;strokeColor=default;fillColor=none;align=center;whiteSpace=wrap;html=1;opacity=30;" parent="pjavsnHLvcbqXYeomyV3-32" vertex="1" visible="0">
          <mxGeometry x="240" width="60" height="47" as="geometry">
            <mxRectangle width="60" height="47" as="alternateBounds" />
          </mxGeometry>
        </mxCell>
        <mxCell id="pjavsnHLvcbqXYeomyV3-38" style="connectable=0;recursiveResize=0;strokeColor=default;fillColor=none;align=center;whiteSpace=wrap;html=1;opacity=30;" parent="pjavsnHLvcbqXYeomyV3-32" vertex="1" visible="0">
          <mxGeometry x="300" width="60" height="47" as="geometry">
            <mxRectangle width="60" height="47" as="alternateBounds" />
          </mxGeometry>
        </mxCell>
        <mxCell id="fvTjEnIU4ORiggJGkJ3c-4" style="connectable=0;recursiveResize=0;strokeColor=default;fillColor=none;align=center;whiteSpace=wrap;html=1;opacity=30;" vertex="1" visible="0" parent="pjavsnHLvcbqXYeomyV3-32">
          <mxGeometry x="360" width="60" height="47" as="geometry">
            <mxRectangle width="60" height="47" as="alternateBounds" />
          </mxGeometry>
        </mxCell>
        <mxCell id="fvTjEnIU4ORiggJGkJ3c-9" style="connectable=0;recursiveResize=0;strokeColor=default;fillColor=none;align=center;whiteSpace=wrap;html=1;opacity=30;" vertex="1" visible="0" parent="pjavsnHLvcbqXYeomyV3-32">
          <mxGeometry x="420" width="60" height="47" as="geometry">
            <mxRectangle width="60" height="47" as="alternateBounds" />
          </mxGeometry>
        </mxCell>
        <mxCell id="fvTjEnIU4ORiggJGkJ3c-14" style="connectable=0;recursiveResize=0;strokeColor=default;fillColor=none;align=center;whiteSpace=wrap;html=1;opacity=30;" vertex="1" visible="0" parent="pjavsnHLvcbqXYeomyV3-32">
          <mxGeometry x="480" width="60" height="47" as="geometry">
            <mxRectangle width="60" height="47" as="alternateBounds" />
          </mxGeometry>
        </mxCell>
        <mxCell id="fvTjEnIU4ORiggJGkJ3c-19" style="connectable=0;recursiveResize=0;strokeColor=default;fillColor=none;align=center;whiteSpace=wrap;html=1;opacity=30;" vertex="1" visible="0" parent="pjavsnHLvcbqXYeomyV3-32">
          <mxGeometry x="540" width="60" height="47" as="geometry">
            <mxRectangle width="60" height="47" as="alternateBounds" />
          </mxGeometry>
        </mxCell>
        <mxCell id="fvTjEnIU4ORiggJGkJ3c-24" style="connectable=0;recursiveResize=0;strokeColor=default;fillColor=none;align=center;whiteSpace=wrap;html=1;opacity=30;" vertex="1" visible="0" parent="pjavsnHLvcbqXYeomyV3-32">
          <mxGeometry x="600" width="60" height="47" as="geometry">
            <mxRectangle width="60" height="47" as="alternateBounds" />
          </mxGeometry>
        </mxCell>
        <mxCell id="fvTjEnIU4ORiggJGkJ3c-39" style="connectable=0;recursiveResize=0;strokeColor=default;fillColor=none;align=center;whiteSpace=wrap;html=1;opacity=30;" vertex="1" visible="0" parent="pjavsnHLvcbqXYeomyV3-32">
          <mxGeometry x="660" width="60" height="47" as="geometry">
            <mxRectangle width="60" height="47" as="alternateBounds" />
          </mxGeometry>
        </mxCell>
        <mxCell id="fvTjEnIU4ORiggJGkJ3c-44" style="connectable=0;recursiveResize=0;strokeColor=default;fillColor=none;align=center;whiteSpace=wrap;html=1;opacity=30;" vertex="1" visible="0" parent="pjavsnHLvcbqXYeomyV3-32">
          <mxGeometry x="720" width="60" height="47" as="geometry">
            <mxRectangle width="60" height="47" as="alternateBounds" />
          </mxGeometry>
        </mxCell>
        <mxCell id="fvTjEnIU4ORiggJGkJ3c-88" style="connectable=0;recursiveResize=0;strokeColor=default;fillColor=none;align=center;whiteSpace=wrap;html=1;opacity=30;" vertex="1" visible="0" parent="pjavsnHLvcbqXYeomyV3-32">
          <mxGeometry x="780" width="60" height="47" as="geometry">
            <mxRectangle width="60" height="47" as="alternateBounds" />
          </mxGeometry>
        </mxCell>
        <mxCell id="pjavsnHLvcbqXYeomyV3-42" style="shape=tableRow;horizontal=0;startSize=0;swimlaneHead=0;swimlaneBody=0;top=0;left=0;bottom=0;right=0;dropTarget=0;collapsible=0;recursiveResize=0;expand=0;fontStyle=0;fillColor=none;strokeColor=default;opacity=30;" parent="pjavsnHLvcbqXYeomyV3-1" vertex="1">
          <mxGeometry y="187" width="840" height="47" as="geometry" />
        </mxCell>
        <mxCell id="pjavsnHLvcbqXYeomyV3-43" style="connectable=0;recursiveResize=0;strokeColor=inherit;fillColor=none;align=center;whiteSpace=wrap;html=1;opacity=30;" parent="pjavsnHLvcbqXYeomyV3-42" vertex="1" visible="0">
          <mxGeometry width="60" height="47" as="geometry">
            <mxRectangle width="60" height="47" as="alternateBounds" />
          </mxGeometry>
        </mxCell>
        <mxCell id="pjavsnHLvcbqXYeomyV3-44" style="connectable=0;recursiveResize=0;strokeColor=default;fillColor=none;align=center;whiteSpace=wrap;html=1;opacity=30;" parent="pjavsnHLvcbqXYeomyV3-42" vertex="1" visible="0">
          <mxGeometry x="60" width="60" height="47" as="geometry">
            <mxRectangle width="60" height="47" as="alternateBounds" />
          </mxGeometry>
        </mxCell>
        <mxCell id="pjavsnHLvcbqXYeomyV3-45" style="connectable=0;recursiveResize=0;strokeColor=default;fillColor=none;align=center;whiteSpace=wrap;html=1;opacity=30;" parent="pjavsnHLvcbqXYeomyV3-42" vertex="1" visible="0">
          <mxGeometry x="120" width="60" height="47" as="geometry">
            <mxRectangle width="60" height="47" as="alternateBounds" />
          </mxGeometry>
        </mxCell>
        <mxCell id="pjavsnHLvcbqXYeomyV3-46" style="connectable=0;recursiveResize=0;strokeColor=default;fillColor=none;align=center;whiteSpace=wrap;html=1;opacity=30;" parent="pjavsnHLvcbqXYeomyV3-42" vertex="1" visible="0">
          <mxGeometry x="180" width="60" height="47" as="geometry">
            <mxRectangle width="60" height="47" as="alternateBounds" />
          </mxGeometry>
        </mxCell>
        <mxCell id="pjavsnHLvcbqXYeomyV3-47" style="connectable=0;recursiveResize=0;strokeColor=default;fillColor=none;align=center;whiteSpace=wrap;html=1;opacity=30;" parent="pjavsnHLvcbqXYeomyV3-42" vertex="1" visible="0">
          <mxGeometry x="240" width="60" height="47" as="geometry">
            <mxRectangle width="60" height="47" as="alternateBounds" />
          </mxGeometry>
        </mxCell>
        <mxCell id="pjavsnHLvcbqXYeomyV3-48" style="connectable=0;recursiveResize=0;strokeColor=default;fillColor=none;align=center;whiteSpace=wrap;html=1;opacity=30;" parent="pjavsnHLvcbqXYeomyV3-42" vertex="1" visible="0">
          <mxGeometry x="300" width="60" height="47" as="geometry">
            <mxRectangle width="60" height="47" as="alternateBounds" />
          </mxGeometry>
        </mxCell>
        <mxCell id="fvTjEnIU4ORiggJGkJ3c-5" style="connectable=0;recursiveResize=0;strokeColor=default;fillColor=none;align=center;whiteSpace=wrap;html=1;opacity=30;" vertex="1" visible="0" parent="pjavsnHLvcbqXYeomyV3-42">
          <mxGeometry x="360" width="60" height="47" as="geometry">
            <mxRectangle width="60" height="47" as="alternateBounds" />
          </mxGeometry>
        </mxCell>
        <mxCell id="fvTjEnIU4ORiggJGkJ3c-10" style="connectable=0;recursiveResize=0;strokeColor=default;fillColor=none;align=center;whiteSpace=wrap;html=1;opacity=30;" vertex="1" visible="0" parent="pjavsnHLvcbqXYeomyV3-42">
          <mxGeometry x="420" width="60" height="47" as="geometry">
            <mxRectangle width="60" height="47" as="alternateBounds" />
          </mxGeometry>
        </mxCell>
        <mxCell id="fvTjEnIU4ORiggJGkJ3c-15" style="connectable=0;recursiveResize=0;strokeColor=default;fillColor=none;align=center;whiteSpace=wrap;html=1;opacity=30;" vertex="1" visible="0" parent="pjavsnHLvcbqXYeomyV3-42">
          <mxGeometry x="480" width="60" height="47" as="geometry">
            <mxRectangle width="60" height="47" as="alternateBounds" />
          </mxGeometry>
        </mxCell>
        <mxCell id="fvTjEnIU4ORiggJGkJ3c-20" style="connectable=0;recursiveResize=0;strokeColor=default;fillColor=none;align=center;whiteSpace=wrap;html=1;opacity=30;" vertex="1" visible="0" parent="pjavsnHLvcbqXYeomyV3-42">
          <mxGeometry x="540" width="60" height="47" as="geometry">
            <mxRectangle width="60" height="47" as="alternateBounds" />
          </mxGeometry>
        </mxCell>
        <mxCell id="fvTjEnIU4ORiggJGkJ3c-25" style="connectable=0;recursiveResize=0;strokeColor=default;fillColor=none;align=center;whiteSpace=wrap;html=1;opacity=30;" vertex="1" visible="0" parent="pjavsnHLvcbqXYeomyV3-42">
          <mxGeometry x="600" width="60" height="47" as="geometry">
            <mxRectangle width="60" height="47" as="alternateBounds" />
          </mxGeometry>
        </mxCell>
        <mxCell id="fvTjEnIU4ORiggJGkJ3c-40" style="connectable=0;recursiveResize=0;strokeColor=default;fillColor=none;align=center;whiteSpace=wrap;html=1;opacity=30;" vertex="1" visible="0" parent="pjavsnHLvcbqXYeomyV3-42">
          <mxGeometry x="660" width="60" height="47" as="geometry">
            <mxRectangle width="60" height="47" as="alternateBounds" />
          </mxGeometry>
        </mxCell>
        <mxCell id="fvTjEnIU4ORiggJGkJ3c-45" style="connectable=0;recursiveResize=0;strokeColor=default;fillColor=none;align=center;whiteSpace=wrap;html=1;opacity=30;" vertex="1" visible="0" parent="pjavsnHLvcbqXYeomyV3-42">
          <mxGeometry x="720" width="60" height="47" as="geometry">
            <mxRectangle width="60" height="47" as="alternateBounds" />
          </mxGeometry>
        </mxCell>
        <mxCell id="fvTjEnIU4ORiggJGkJ3c-89" style="connectable=0;recursiveResize=0;strokeColor=default;fillColor=none;align=center;whiteSpace=wrap;html=1;opacity=30;" vertex="1" visible="0" parent="pjavsnHLvcbqXYeomyV3-42">
          <mxGeometry x="780" width="60" height="47" as="geometry">
            <mxRectangle width="60" height="47" as="alternateBounds" />
          </mxGeometry>
        </mxCell>
        <mxCell id="fvTjEnIU4ORiggJGkJ3c-53" style="shape=tableRow;horizontal=0;startSize=0;swimlaneHead=0;swimlaneBody=0;top=0;left=0;bottom=0;right=0;dropTarget=0;collapsible=0;recursiveResize=0;expand=0;fontStyle=0;fillColor=none;strokeColor=default;opacity=30;" vertex="1" parent="pjavsnHLvcbqXYeomyV3-1">
          <mxGeometry y="234" width="840" height="47" as="geometry" />
        </mxCell>
        <mxCell id="fvTjEnIU4ORiggJGkJ3c-54" style="connectable=0;recursiveResize=0;strokeColor=inherit;fillColor=none;align=center;whiteSpace=wrap;html=1;opacity=30;" vertex="1" visible="0" parent="fvTjEnIU4ORiggJGkJ3c-53">
          <mxGeometry width="60" height="47" as="geometry">
            <mxRectangle width="60" height="47" as="alternateBounds" />
          </mxGeometry>
        </mxCell>
        <mxCell id="fvTjEnIU4ORiggJGkJ3c-55" style="connectable=0;recursiveResize=0;strokeColor=default;fillColor=none;align=center;whiteSpace=wrap;html=1;opacity=30;" vertex="1" visible="0" parent="fvTjEnIU4ORiggJGkJ3c-53">
          <mxGeometry x="60" width="60" height="47" as="geometry">
            <mxRectangle width="60" height="47" as="alternateBounds" />
          </mxGeometry>
        </mxCell>
        <mxCell id="fvTjEnIU4ORiggJGkJ3c-56" style="connectable=0;recursiveResize=0;strokeColor=default;fillColor=none;align=center;whiteSpace=wrap;html=1;opacity=30;" vertex="1" visible="0" parent="fvTjEnIU4ORiggJGkJ3c-53">
          <mxGeometry x="120" width="60" height="47" as="geometry">
            <mxRectangle width="60" height="47" as="alternateBounds" />
          </mxGeometry>
        </mxCell>
        <mxCell id="fvTjEnIU4ORiggJGkJ3c-57" style="connectable=0;recursiveResize=0;strokeColor=default;fillColor=none;align=center;whiteSpace=wrap;html=1;opacity=30;" vertex="1" visible="0" parent="fvTjEnIU4ORiggJGkJ3c-53">
          <mxGeometry x="180" width="60" height="47" as="geometry">
            <mxRectangle width="60" height="47" as="alternateBounds" />
          </mxGeometry>
        </mxCell>
        <mxCell id="fvTjEnIU4ORiggJGkJ3c-58" style="connectable=0;recursiveResize=0;strokeColor=default;fillColor=none;align=center;whiteSpace=wrap;html=1;opacity=30;" vertex="1" visible="0" parent="fvTjEnIU4ORiggJGkJ3c-53">
          <mxGeometry x="240" width="60" height="47" as="geometry">
            <mxRectangle width="60" height="47" as="alternateBounds" />
          </mxGeometry>
        </mxCell>
        <mxCell id="fvTjEnIU4ORiggJGkJ3c-59" style="connectable=0;recursiveResize=0;strokeColor=default;fillColor=none;align=center;whiteSpace=wrap;html=1;opacity=30;" vertex="1" visible="0" parent="fvTjEnIU4ORiggJGkJ3c-53">
          <mxGeometry x="300" width="60" height="47" as="geometry">
            <mxRectangle width="60" height="47" as="alternateBounds" />
          </mxGeometry>
        </mxCell>
        <mxCell id="fvTjEnIU4ORiggJGkJ3c-60" style="connectable=0;recursiveResize=0;strokeColor=default;fillColor=none;align=center;whiteSpace=wrap;html=1;opacity=30;" vertex="1" visible="0" parent="fvTjEnIU4ORiggJGkJ3c-53">
          <mxGeometry x="360" width="60" height="47" as="geometry">
            <mxRectangle width="60" height="47" as="alternateBounds" />
          </mxGeometry>
        </mxCell>
        <mxCell id="fvTjEnIU4ORiggJGkJ3c-61" style="connectable=0;recursiveResize=0;strokeColor=default;fillColor=none;align=center;whiteSpace=wrap;html=1;opacity=30;" vertex="1" visible="0" parent="fvTjEnIU4ORiggJGkJ3c-53">
          <mxGeometry x="420" width="60" height="47" as="geometry">
            <mxRectangle width="60" height="47" as="alternateBounds" />
          </mxGeometry>
        </mxCell>
        <mxCell id="fvTjEnIU4ORiggJGkJ3c-62" style="connectable=0;recursiveResize=0;strokeColor=default;fillColor=none;align=center;whiteSpace=wrap;html=1;opacity=30;" vertex="1" visible="0" parent="fvTjEnIU4ORiggJGkJ3c-53">
          <mxGeometry x="480" width="60" height="47" as="geometry">
            <mxRectangle width="60" height="47" as="alternateBounds" />
          </mxGeometry>
        </mxCell>
        <mxCell id="fvTjEnIU4ORiggJGkJ3c-63" style="connectable=0;recursiveResize=0;strokeColor=default;fillColor=none;align=center;whiteSpace=wrap;html=1;opacity=30;" vertex="1" visible="0" parent="fvTjEnIU4ORiggJGkJ3c-53">
          <mxGeometry x="540" width="60" height="47" as="geometry">
            <mxRectangle width="60" height="47" as="alternateBounds" />
          </mxGeometry>
        </mxCell>
        <mxCell id="fvTjEnIU4ORiggJGkJ3c-64" style="connectable=0;recursiveResize=0;strokeColor=default;fillColor=none;align=center;whiteSpace=wrap;html=1;opacity=30;" vertex="1" visible="0" parent="fvTjEnIU4ORiggJGkJ3c-53">
          <mxGeometry x="600" width="60" height="47" as="geometry">
            <mxRectangle width="60" height="47" as="alternateBounds" />
          </mxGeometry>
        </mxCell>
        <mxCell id="fvTjEnIU4ORiggJGkJ3c-65" style="connectable=0;recursiveResize=0;strokeColor=default;fillColor=none;align=center;whiteSpace=wrap;html=1;opacity=30;" vertex="1" visible="0" parent="fvTjEnIU4ORiggJGkJ3c-53">
          <mxGeometry x="660" width="60" height="47" as="geometry">
            <mxRectangle width="60" height="47" as="alternateBounds" />
          </mxGeometry>
        </mxCell>
        <mxCell id="fvTjEnIU4ORiggJGkJ3c-66" style="connectable=0;recursiveResize=0;strokeColor=default;fillColor=none;align=center;whiteSpace=wrap;html=1;opacity=30;" vertex="1" visible="0" parent="fvTjEnIU4ORiggJGkJ3c-53">
          <mxGeometry x="720" width="60" height="47" as="geometry">
            <mxRectangle width="60" height="47" as="alternateBounds" />
          </mxGeometry>
        </mxCell>
        <mxCell id="fvTjEnIU4ORiggJGkJ3c-90" style="connectable=0;recursiveResize=0;strokeColor=default;fillColor=none;align=center;whiteSpace=wrap;html=1;opacity=30;" vertex="1" visible="0" parent="fvTjEnIU4ORiggJGkJ3c-53">
          <mxGeometry x="780" width="60" height="47" as="geometry">
            <mxRectangle width="60" height="47" as="alternateBounds" />
          </mxGeometry>
        </mxCell>
        <mxCell id="fvTjEnIU4ORiggJGkJ3c-67" style="shape=tableRow;horizontal=0;startSize=0;swimlaneHead=0;swimlaneBody=0;top=0;left=0;bottom=0;right=0;dropTarget=0;collapsible=0;recursiveResize=0;expand=0;fontStyle=0;fillColor=none;strokeColor=default;opacity=30;" vertex="1" parent="pjavsnHLvcbqXYeomyV3-1">
          <mxGeometry y="281" width="840" height="47" as="geometry" />
        </mxCell>
        <mxCell id="fvTjEnIU4ORiggJGkJ3c-68" style="connectable=0;recursiveResize=0;strokeColor=inherit;fillColor=none;align=center;whiteSpace=wrap;html=1;opacity=30;" vertex="1" visible="0" parent="fvTjEnIU4ORiggJGkJ3c-67">
          <mxGeometry width="60" height="47" as="geometry">
            <mxRectangle width="60" height="47" as="alternateBounds" />
          </mxGeometry>
        </mxCell>
        <mxCell id="fvTjEnIU4ORiggJGkJ3c-69" style="connectable=0;recursiveResize=0;strokeColor=default;fillColor=none;align=center;whiteSpace=wrap;html=1;opacity=30;" vertex="1" visible="0" parent="fvTjEnIU4ORiggJGkJ3c-67">
          <mxGeometry x="60" width="60" height="47" as="geometry">
            <mxRectangle width="60" height="47" as="alternateBounds" />
          </mxGeometry>
        </mxCell>
        <mxCell id="fvTjEnIU4ORiggJGkJ3c-70" style="connectable=0;recursiveResize=0;strokeColor=default;fillColor=none;align=center;whiteSpace=wrap;html=1;opacity=30;" vertex="1" visible="0" parent="fvTjEnIU4ORiggJGkJ3c-67">
          <mxGeometry x="120" width="60" height="47" as="geometry">
            <mxRectangle width="60" height="47" as="alternateBounds" />
          </mxGeometry>
        </mxCell>
        <mxCell id="fvTjEnIU4ORiggJGkJ3c-71" style="connectable=0;recursiveResize=0;strokeColor=default;fillColor=none;align=center;whiteSpace=wrap;html=1;opacity=30;" vertex="1" visible="0" parent="fvTjEnIU4ORiggJGkJ3c-67">
          <mxGeometry x="180" width="60" height="47" as="geometry">
            <mxRectangle width="60" height="47" as="alternateBounds" />
          </mxGeometry>
        </mxCell>
        <mxCell id="fvTjEnIU4ORiggJGkJ3c-72" style="connectable=0;recursiveResize=0;strokeColor=default;fillColor=none;align=center;whiteSpace=wrap;html=1;opacity=30;" vertex="1" visible="0" parent="fvTjEnIU4ORiggJGkJ3c-67">
          <mxGeometry x="240" width="60" height="47" as="geometry">
            <mxRectangle width="60" height="47" as="alternateBounds" />
          </mxGeometry>
        </mxCell>
        <mxCell id="fvTjEnIU4ORiggJGkJ3c-73" style="connectable=0;recursiveResize=0;strokeColor=default;fillColor=none;align=center;whiteSpace=wrap;html=1;opacity=30;" vertex="1" visible="0" parent="fvTjEnIU4ORiggJGkJ3c-67">
          <mxGeometry x="300" width="60" height="47" as="geometry">
            <mxRectangle width="60" height="47" as="alternateBounds" />
          </mxGeometry>
        </mxCell>
        <mxCell id="fvTjEnIU4ORiggJGkJ3c-74" style="connectable=0;recursiveResize=0;strokeColor=default;fillColor=none;align=center;whiteSpace=wrap;html=1;opacity=30;" vertex="1" visible="0" parent="fvTjEnIU4ORiggJGkJ3c-67">
          <mxGeometry x="360" width="60" height="47" as="geometry">
            <mxRectangle width="60" height="47" as="alternateBounds" />
          </mxGeometry>
        </mxCell>
        <mxCell id="fvTjEnIU4ORiggJGkJ3c-75" style="connectable=0;recursiveResize=0;strokeColor=default;fillColor=none;align=center;whiteSpace=wrap;html=1;opacity=30;" vertex="1" visible="0" parent="fvTjEnIU4ORiggJGkJ3c-67">
          <mxGeometry x="420" width="60" height="47" as="geometry">
            <mxRectangle width="60" height="47" as="alternateBounds" />
          </mxGeometry>
        </mxCell>
        <mxCell id="fvTjEnIU4ORiggJGkJ3c-76" style="connectable=0;recursiveResize=0;strokeColor=default;fillColor=none;align=center;whiteSpace=wrap;html=1;opacity=30;" vertex="1" visible="0" parent="fvTjEnIU4ORiggJGkJ3c-67">
          <mxGeometry x="480" width="60" height="47" as="geometry">
            <mxRectangle width="60" height="47" as="alternateBounds" />
          </mxGeometry>
        </mxCell>
        <mxCell id="fvTjEnIU4ORiggJGkJ3c-77" style="connectable=0;recursiveResize=0;strokeColor=default;fillColor=none;align=center;whiteSpace=wrap;html=1;opacity=30;" vertex="1" visible="0" parent="fvTjEnIU4ORiggJGkJ3c-67">
          <mxGeometry x="540" width="60" height="47" as="geometry">
            <mxRectangle width="60" height="47" as="alternateBounds" />
          </mxGeometry>
        </mxCell>
        <mxCell id="fvTjEnIU4ORiggJGkJ3c-78" style="connectable=0;recursiveResize=0;strokeColor=default;fillColor=none;align=center;whiteSpace=wrap;html=1;opacity=30;" vertex="1" visible="0" parent="fvTjEnIU4ORiggJGkJ3c-67">
          <mxGeometry x="600" width="60" height="47" as="geometry">
            <mxRectangle width="60" height="47" as="alternateBounds" />
          </mxGeometry>
        </mxCell>
        <mxCell id="fvTjEnIU4ORiggJGkJ3c-79" style="connectable=0;recursiveResize=0;strokeColor=default;fillColor=none;align=center;whiteSpace=wrap;html=1;opacity=30;" vertex="1" visible="0" parent="fvTjEnIU4ORiggJGkJ3c-67">
          <mxGeometry x="660" width="60" height="47" as="geometry">
            <mxRectangle width="60" height="47" as="alternateBounds" />
          </mxGeometry>
        </mxCell>
        <mxCell id="fvTjEnIU4ORiggJGkJ3c-80" style="connectable=0;recursiveResize=0;strokeColor=default;fillColor=none;align=center;whiteSpace=wrap;html=1;opacity=30;" vertex="1" visible="0" parent="fvTjEnIU4ORiggJGkJ3c-67">
          <mxGeometry x="720" width="60" height="47" as="geometry">
            <mxRectangle width="60" height="47" as="alternateBounds" />
          </mxGeometry>
        </mxCell>
        <mxCell id="fvTjEnIU4ORiggJGkJ3c-91" style="connectable=0;recursiveResize=0;strokeColor=default;fillColor=none;align=center;whiteSpace=wrap;html=1;opacity=30;" vertex="1" visible="0" parent="fvTjEnIU4ORiggJGkJ3c-67">
          <mxGeometry x="780" width="60" height="47" as="geometry">
            <mxRectangle width="60" height="47" as="alternateBounds" />
          </mxGeometry>
        </mxCell>
        <mxCell id="pjavsnHLvcbqXYeomyV3-52" value="t10" style="text;html=1;align=center;verticalAlign=middle;whiteSpace=wrap;rounded=0;opacity=30;strokeColor=none;" parent="1" vertex="1">
          <mxGeometry x="280" y="370" width="60" height="30" as="geometry" />
        </mxCell>
        <mxCell id="pjavsnHLvcbqXYeomyV3-53" value="t20" style="text;html=1;align=center;verticalAlign=middle;whiteSpace=wrap;rounded=0;opacity=30;strokeColor=none;" parent="1" vertex="1">
          <mxGeometry x="340" y="370" width="60" height="30" as="geometry" />
        </mxCell>
        <mxCell id="pjavsnHLvcbqXYeomyV3-54" value="t30" style="text;html=1;align=center;verticalAlign=middle;whiteSpace=wrap;rounded=0;opacity=30;strokeColor=none;" parent="1" vertex="1">
          <mxGeometry x="400" y="370" width="60" height="30" as="geometry" />
        </mxCell>
        <mxCell id="pjavsnHLvcbqXYeomyV3-55" value="t40" style="text;html=1;align=center;verticalAlign=middle;whiteSpace=wrap;rounded=0;opacity=30;strokeColor=none;" parent="1" vertex="1">
          <mxGeometry x="460" y="370" width="60" height="30" as="geometry" />
        </mxCell>
        <mxCell id="pjavsnHLvcbqXYeomyV3-58" value="a" style="ellipse;whiteSpace=wrap;html=1;fillColor=#97D077;strokeColor=none;" parent="1" vertex="1">
          <mxGeometry x="419.5" y="420" width="25" height="20" as="geometry" />
        </mxCell>
        <mxCell id="pjavsnHLvcbqXYeomyV3-61" value="" style="shape=crossbar;whiteSpace=wrap;html=1;rounded=1;strokeWidth=3;fillColor=#dae8fc;strokeColor=#6c8ebf;" parent="1" vertex="1">
          <mxGeometry x="253" y="461" width="180" height="20" as="geometry" />
        </mxCell>
        <mxCell id="pjavsnHLvcbqXYeomyV3-62" value="w1" style="text;html=1;align=center;verticalAlign=middle;whiteSpace=wrap;rounded=0;" parent="1" vertex="1">
          <mxGeometry x="250" y="300" width="60" height="30" as="geometry" />
        </mxCell>
        <mxCell id="fvTjEnIU4ORiggJGkJ3c-26" value="t50" style="text;html=1;align=center;verticalAlign=middle;whiteSpace=wrap;rounded=0;opacity=30;strokeColor=none;" vertex="1" parent="1">
          <mxGeometry x="520" y="370" width="60" height="30" as="geometry" />
        </mxCell>
        <mxCell id="fvTjEnIU4ORiggJGkJ3c-27" value="t60" style="text;html=1;align=center;verticalAlign=middle;whiteSpace=wrap;rounded=0;opacity=30;strokeColor=none;" vertex="1" parent="1">
          <mxGeometry x="580" y="370" width="60" height="30" as="geometry" />
        </mxCell>
        <mxCell id="fvTjEnIU4ORiggJGkJ3c-28" value="t70" style="text;html=1;align=center;verticalAlign=middle;whiteSpace=wrap;rounded=0;opacity=30;strokeColor=none;" vertex="1" parent="1">
          <mxGeometry x="640" y="370" width="60" height="30" as="geometry" />
        </mxCell>
        <mxCell id="fvTjEnIU4ORiggJGkJ3c-29" value="t80" style="text;html=1;align=center;verticalAlign=middle;whiteSpace=wrap;rounded=0;opacity=30;strokeColor=none;" vertex="1" parent="1">
          <mxGeometry x="700" y="370" width="60" height="30" as="geometry" />
        </mxCell>
        <mxCell id="fvTjEnIU4ORiggJGkJ3c-30" value="t90" style="text;html=1;align=center;verticalAlign=middle;whiteSpace=wrap;rounded=0;opacity=30;strokeColor=none;" vertex="1" parent="1">
          <mxGeometry x="760" y="370" width="60" height="30" as="geometry" />
        </mxCell>
        <mxCell id="fvTjEnIU4ORiggJGkJ3c-33" value="d" style="ellipse;whiteSpace=wrap;html=1;fillColor=#97D077;strokeColor=none;" vertex="1" parent="1">
          <mxGeometry x="837.5" y="420" width="25" height="20" as="geometry" />
        </mxCell>
        <mxCell id="fvTjEnIU4ORiggJGkJ3c-34" value="e" style="ellipse;whiteSpace=wrap;html=1;fillColor=#97D077;strokeColor=none;" vertex="1" parent="1">
          <mxGeometry x="897.5" y="420" width="25" height="20" as="geometry" />
        </mxCell>
        <mxCell id="fvTjEnIU4ORiggJGkJ3c-46" value="t100" style="text;html=1;align=center;verticalAlign=middle;whiteSpace=wrap;rounded=0;opacity=30;strokeColor=none;" vertex="1" parent="1">
          <mxGeometry x="820" y="370" width="60" height="30" as="geometry" />
        </mxCell>
        <mxCell id="fvTjEnIU4ORiggJGkJ3c-47" value="t110" style="text;html=1;align=center;verticalAlign=middle;whiteSpace=wrap;rounded=0;opacity=30;strokeColor=none;" vertex="1" parent="1">
          <mxGeometry x="880" y="370" width="60" height="30" as="geometry" />
        </mxCell>
        <mxCell id="fvTjEnIU4ORiggJGkJ3c-48" value="b" style="ellipse;whiteSpace=wrap;html=1;fillColor=#97D077;strokeColor=none;" vertex="1" parent="1">
          <mxGeometry x="477.5" y="420" width="25" height="20" as="geometry" />
        </mxCell>
        <mxCell id="fvTjEnIU4ORiggJGkJ3c-49" value="" style="shape=crossbar;whiteSpace=wrap;html=1;rounded=1;strokeWidth=3;fillColor=#dae8fc;strokeColor=#6c8ebf;" vertex="1" parent="1">
          <mxGeometry x="310" y="488" width="180" height="20" as="geometry" />
        </mxCell>
        <mxCell id="fvTjEnIU4ORiggJGkJ3c-50" value="c" style="ellipse;whiteSpace=wrap;html=1;fillColor=#97D077;strokeColor=none;" vertex="1" parent="1">
          <mxGeometry x="567.5" y="420" width="25" height="20" as="geometry" />
        </mxCell>
        <mxCell id="fvTjEnIU4ORiggJGkJ3c-51" value="" style="shape=crossbar;whiteSpace=wrap;html=1;rounded=1;strokeWidth=3;fillColor=#dae8fc;strokeColor=#6c8ebf;" vertex="1" parent="1">
          <mxGeometry x="400" y="518" width="180" height="20" as="geometry" />
        </mxCell>
        <mxCell id="fvTjEnIU4ORiggJGkJ3c-52" value="" style="shape=crossbar;whiteSpace=wrap;html=1;rounded=1;strokeWidth=3;fillColor=#dae8fc;strokeColor=#6c8ebf;" vertex="1" parent="1">
          <mxGeometry x="440" y="548" width="180" height="20" as="geometry" />
        </mxCell>
        <mxCell id="fvTjEnIU4ORiggJGkJ3c-81" value="" style="shape=crossbar;whiteSpace=wrap;html=1;rounded=1;strokeWidth=3;fillColor=#dae8fc;strokeColor=#6c8ebf;" vertex="1" parent="1">
          <mxGeometry x="494" y="578" width="180" height="20" as="geometry" />
        </mxCell>
        <mxCell id="fvTjEnIU4ORiggJGkJ3c-82" value="" style="shape=crossbar;whiteSpace=wrap;html=1;rounded=1;strokeWidth=3;fillColor=#dae8fc;strokeColor=#6c8ebf;" vertex="1" parent="1">
          <mxGeometry x="670" y="614" width="180" height="20" as="geometry" />
        </mxCell>
        <mxCell id="fvTjEnIU4ORiggJGkJ3c-83" value="" style="shape=crossbar;whiteSpace=wrap;html=1;rounded=1;strokeWidth=3;fillColor=#dae8fc;strokeColor=#6c8ebf;" vertex="1" parent="1">
          <mxGeometry x="730" y="640" width="180" height="20" as="geometry" />
        </mxCell>
        <mxCell id="fvTjEnIU4ORiggJGkJ3c-84" value="" style="shape=crossbar;whiteSpace=wrap;html=1;rounded=1;strokeWidth=3;fillColor=#dae8fc;strokeColor=#6c8ebf;" vertex="1" parent="1">
          <mxGeometry x="853" y="668" width="177" height="20" as="geometry" />
        </mxCell>
        <mxCell id="fvTjEnIU4ORiggJGkJ3c-92" value="t120" style="text;html=1;align=center;verticalAlign=middle;whiteSpace=wrap;rounded=0;opacity=30;strokeColor=none;" vertex="1" parent="1">
          <mxGeometry x="940" y="370" width="60" height="30" as="geometry" />
        </mxCell>
        <mxCell id="fvTjEnIU4ORiggJGkJ3c-93" value="w1" style="text;html=1;align=center;verticalAlign=middle;whiteSpace=wrap;rounded=0;" vertex="1" parent="1">
          <mxGeometry x="310" y="451" width="60" height="30" as="geometry" />
        </mxCell>
        <mxCell id="fvTjEnIU4ORiggJGkJ3c-94" value="w2" style="text;html=1;align=center;verticalAlign=middle;whiteSpace=wrap;rounded=0;" vertex="1" parent="1">
          <mxGeometry x="373" y="478" width="60" height="30" as="geometry" />
        </mxCell>
        <mxCell id="fvTjEnIU4ORiggJGkJ3c-95" value="w3" style="text;html=1;align=center;verticalAlign=middle;whiteSpace=wrap;rounded=0;" vertex="1" parent="1">
          <mxGeometry x="477.5" y="508" width="60" height="30" as="geometry" />
        </mxCell>
        <mxCell id="fvTjEnIU4ORiggJGkJ3c-96" value="w4" style="text;html=1;align=center;verticalAlign=middle;whiteSpace=wrap;rounded=0;" vertex="1" parent="1">
          <mxGeometry x="500" y="538" width="60" height="30" as="geometry" />
        </mxCell>
        <mxCell id="fvTjEnIU4ORiggJGkJ3c-97" value="w5" style="text;html=1;align=center;verticalAlign=middle;whiteSpace=wrap;rounded=0;" vertex="1" parent="1">
          <mxGeometry x="550" y="568" width="60" height="30" as="geometry" />
        </mxCell>
        <mxCell id="fvTjEnIU4ORiggJGkJ3c-98" value="w6" style="text;html=1;align=center;verticalAlign=middle;whiteSpace=wrap;rounded=0;" vertex="1" parent="1">
          <mxGeometry x="730" y="604" width="60" height="30" as="geometry" />
        </mxCell>
        <mxCell id="fvTjEnIU4ORiggJGkJ3c-99" value="w7" style="text;html=1;align=center;verticalAlign=middle;whiteSpace=wrap;rounded=0;" vertex="1" parent="1">
          <mxGeometry x="790" y="630" width="60" height="30" as="geometry" />
        </mxCell>
        <mxCell id="fvTjEnIU4ORiggJGkJ3c-100" value="w8" style="text;html=1;align=center;verticalAlign=middle;whiteSpace=wrap;rounded=0;" vertex="1" parent="1">
          <mxGeometry x="911.5" y="658" width="60" height="30" as="geometry" />
        </mxCell>
      </root>
    </mxGraphModel>
  </diagram>
</mxfile>
